# xmcd CD database file
#
# Track frame offsets:
#	150
#	26632
#	52698
#	74067
#	95078
#	117242
#	143683
#	163289
#	208455
#	230328
#	252029
#	280411
#	316414
#
# Disc length: 4487 seconds
#
# Revision: 0
# Processed by: cddbd v1.5PL3 Copyright (c) Steve Scherf et al.
# Submitted via: NeoAudio 9.9.9
#
DISCID=c411850d
DTITLE=Santana - Supernatural
DYEAR=1900
DGENRE=Salsa
TTITLE0=(Da Le) Yaleo
TTITLE1=Love Of My Life
TTITLE2=Put Your Lights On
TTITLE3=Africa Bamba
TTITLE4=Smooth
TTITLE5=Do You Like The Way
TTITLE6=Maria Maria
TTITLE7=Migra
TTITLE8=Corazon Espinado
TTITLE9=Wishing It Was
TTITLE10=El Farol
TTITLE11=Primavera
TTITLE12=The Calling
EXTD=
EXTT0=
EXTT1=
EXTT2=
EXTT3=
EXTT4=
EXTT5=
EXTT6=
EXTT7=
EXTT8=
EXTT9=
EXTT10=
EXTT11=
EXTT12=
PLAYORDER=
